<svg width="568" height="98" viewBox="0 0 568 98" fill="none" xmlns="http://www.w3.org/2000/svg">
<path d="M93.5753 28.287C92.7332 27.0843 92.2814 25.6516 92.2814 24.1833V2.39797C92.2814 1.60769 91.6408 0.967041 90.8505 0.967041H71.4924C70.7021 0.967041 70.0614 1.60769 70.0614 2.39797V29.6568C70.0614 31.1251 70.5132 32.5578 71.3554 33.7606L98.3738 72.3461C98.7188 72.8388 98.7189 73.4947 98.3739 73.9875L97.5232 75.2029C97.2554 75.5854 96.8178 75.8132 96.3509 75.8132H29.6059C29.1389 75.8132 28.7013 75.5854 28.4336 75.2028L27.6488 74.0816C27.304 73.5888 27.304 72.933 27.649 72.4403L54.7338 33.758C55.5759 32.5553 56.0276 31.1226 56.0276 29.6543V2.39797C56.0276 1.60769 55.387 0.967041 54.5967 0.967041H35.2386C34.4483 0.967041 33.8076 1.60769 33.8076 2.39797V24.1833C33.8076 25.6516 33.3559 27.0843 32.5138 28.287L0.517544 73.9834C-0.172529 74.9689 -0.172513 76.2809 0.517584 77.2664L14.2437 96.8687C14.7257 97.5571 15.5132 97.967 16.3535 97.967H109.736C110.576 97.967 111.363 97.5571 111.845 96.8687L125.571 77.2664C126.262 76.2809 126.262 74.9689 125.572 73.9834L93.5753 28.287Z" fill="#67D697"/>
<path d="M242.233 27.187C245.533 30.7355 247.187 35.3874 247.194 41.143V76.5064H232.568V41.143C232.658 39.4328 232.162 37.743 231.162 36.3526C230.738 35.7857 230.184 35.3285 229.547 35.0192C228.91 34.71 228.208 34.5576 227.5 34.5748H222.859C221.869 34.5639 220.887 34.7535 219.972 35.1322C219.058 35.5109 218.229 36.0709 217.536 36.7784C215.97 38.367 214.983 40.437 214.737 42.6546V76.5064H200.078V41.26C200.161 39.5325 199.671 37.826 198.684 36.4058C198.266 35.8256 197.713 35.3558 197.074 35.0368C196.434 34.7178 195.726 34.5593 195.011 34.5748H190.806C189.738 34.594 188.689 34.856 187.737 35.3411C186.785 35.8262 185.956 36.5216 185.313 37.3745C183.63 39.4829 182.581 42.0269 182.29 44.7091V76.5064H167.632V22.7161H181.215V28.9648C182.455 26.8692 184.173 25.0965 186.229 23.7913C188.066 22.5654 190.216 21.8929 192.424 21.8538H198.503C201.008 21.8309 203.465 22.5413 205.571 23.8977C207.733 25.3095 209.467 27.2865 210.585 29.6142C212.017 27.309 213.949 25.3553 216.238 23.8977C218.314 22.5696 220.725 21.8607 223.189 21.8538H229.118C234.555 21.8538 238.926 23.6315 242.233 27.187Z" fill="#131514"/>
<path d="M258.659 73.1638C256.988 71.847 255.649 70.1564 254.751 68.228C253.852 66.2996 253.419 64.1872 253.485 62.0608V58.0688C253.434 55.9471 253.897 53.8445 254.835 51.9406C255.773 50.0368 257.158 48.3884 258.872 47.1362C262.47 44.3684 267.214 42.9846 273.104 42.9846H279.683C281.718 43.0008 283.743 43.2544 285.719 43.7404C287.765 44.2019 289.753 44.8873 291.648 45.7842V40.1742C291.677 39.3624 291.534 38.5537 291.227 37.8014C290.921 37.0491 290.459 36.3702 289.871 35.8096C288.588 34.6621 286.906 34.0623 285.187 34.1383H275.915C274.185 34.052 272.477 34.5466 271.061 35.5435C270.473 35.9762 269.999 36.5453 269.68 37.2018C269.361 37.8583 269.207 38.5824 269.23 39.3119H254.997C254.917 36.8985 255.396 34.4992 256.397 32.3017C257.398 30.1041 258.893 28.1678 260.767 26.6441C264.606 23.4505 269.655 21.8538 275.915 21.8538H285.187C291.51 21.8538 296.613 23.5251 300.495 26.8677C302.403 28.5051 303.916 30.5522 304.923 32.8562C305.929 35.1603 306.402 37.6618 306.307 40.1742V76.5064H292.724V70.0447C291.002 72.2579 288.824 74.0734 286.337 75.3673C284.055 76.6364 281.495 77.3203 278.885 77.358H272.2C266.629 77.3651 262.115 75.967 258.659 73.1638ZM280.003 66.1592C282.526 66.1964 285.004 65.4852 287.124 64.1153C289.167 62.7952 290.749 60.8716 291.648 58.6117V56.7808C290.203 55.7886 288.575 55.0938 286.858 54.7369C284.722 54.2197 282.53 53.9659 280.333 53.9811H273.541C272.015 53.8984 270.508 54.3543 269.283 55.2691C268.762 55.6876 268.348 56.2226 268.072 56.8311C267.796 57.4394 267.668 58.1041 267.697 58.7714V61.5711C267.689 62.2326 267.848 62.8853 268.159 63.4693C268.47 64.0533 268.922 64.55 269.474 64.9137C270.858 65.842 272.505 66.2976 274.169 66.2124L280.003 66.1592Z" fill="#131514"/>
<path d="M301.644 85.459H308.33C309.418 85.5421 310.509 85.3542 311.507 84.9121C312.505 84.4699 313.377 83.7874 314.046 82.9254C315.26 81.2328 315.877 78.6673 315.877 75.1118V22.716H330.504V74.5689C330.504 82.6167 328.708 88.5283 325.117 92.3038C321.526 96.0794 315.92 97.9671 308.298 97.9671H301.613L301.644 85.459ZM316.463 15.2004C314.851 13.464 313.955 11.1824 313.955 8.81331C313.955 6.44419 314.851 4.16264 316.463 2.42617C318.358 0.857995 320.741 0 323.201 0C325.661 0 328.044 0.857995 329.939 2.42617C331.551 4.16264 332.447 6.44419 332.447 8.81331C332.447 11.1824 331.551 13.464 329.939 15.2004C328.044 16.7686 325.661 17.6266 323.201 17.6266C320.741 17.6266 318.358 16.7686 316.463 15.2004Z" fill="#131514"/>
<path d="M342.213 15.2216C340.602 13.4851 339.706 11.2035 339.706 8.83442C339.706 6.4653 340.602 4.18375 342.213 2.44728C344.106 0.878 346.488 0.019165 348.946 0.019165C351.405 0.019165 353.787 0.878 355.68 2.44728C357.291 4.18375 358.187 6.4653 358.187 8.83442C358.187 11.2035 357.291 13.4851 355.68 15.2216C353.787 16.7908 351.405 17.6497 348.946 17.6497C346.488 17.6497 344.106 16.7908 342.213 15.2216ZM341.617 22.6732H356.276V76.4636H341.596L341.617 22.6732Z" fill="#131514"/>
<path d="M369.966 72.4616C366.985 69.7648 365.495 65.5812 365.495 59.9109V1.04272H380.153V59.0486C380.028 59.7275 380.069 60.4267 380.274 61.0859C380.479 61.7452 380.841 62.3448 381.329 62.833C381.817 63.3211 382.417 63.6833 383.076 63.8882C383.736 64.0931 384.435 64.1347 385.114 64.0093H390.937V76.5068H384.039C377.637 76.5068 372.946 75.1584 369.966 72.4616Z" fill="#131514"/>
<path d="M399.698 73.1638C398.026 71.847 396.688 70.1564 395.789 68.228C394.891 66.2996 394.457 64.1872 394.524 62.0608V58.0688C394.472 55.9459 394.936 53.842 395.876 51.9378C396.816 50.0336 398.204 48.3859 399.921 47.1362C403.512 44.3684 408.253 42.9846 414.143 42.9846H420.722C422.756 43.0008 424.782 43.2544 426.758 43.7404C428.807 44.2012 430.799 44.8866 432.698 45.7842V40.1742C432.729 39.362 432.587 38.5525 432.28 37.7998C431.974 37.0471 431.51 36.3686 430.92 35.8096C429.637 34.6621 427.956 34.0623 426.236 34.1383H416.964C415.235 34.0536 413.527 34.5481 412.11 35.5435C411.522 35.9762 411.048 36.5453 410.729 37.2018C410.41 37.8583 410.256 38.5824 410.279 39.3119H396.067C395.99 36.8988 396.47 34.5004 397.471 32.3032C398.471 30.106 399.966 28.1694 401.837 26.6441C405.684 23.4505 410.733 21.8538 416.985 21.8538H426.311C432.634 21.8538 437.736 23.5251 441.618 26.8677C443.526 28.5051 445.04 30.5522 446.046 32.8562C447.053 35.1603 447.526 37.6618 447.431 40.1742V76.5064H433.762V70.0447C432.04 72.2569 429.862 74.0723 427.375 75.3673C425.094 76.6364 422.534 77.3203 419.923 77.358H413.238C407.689 77.3651 403.175 75.967 399.698 73.1638ZM421.041 66.1592C423.565 66.1964 426.043 65.4852 428.163 64.1153C430.206 62.7952 431.787 60.8716 432.687 58.6117V56.7808C431.242 55.7886 429.613 55.0938 427.897 54.7369C425.761 54.2197 423.569 53.9659 421.371 53.9811H414.601C413.092 53.911 411.606 54.3662 410.396 55.2691C409.877 55.6789 409.461 56.2039 409.18 56.8026C408.899 57.4013 408.761 58.0571 408.778 58.7182V61.5179C408.771 62.1793 408.93 62.8321 409.24 63.4161C409.551 64.0001 410.003 64.4968 410.556 64.8605C411.94 65.7874 413.586 66.2429 415.25 66.1592H421.041Z" fill="#131514"/>
<path d="M474.821 75.2187C472.545 73.8046 470.625 71.8849 469.211 69.6087V76.5068H455.628V1.04272H470.297V26.9213C471.81 25.356 473.619 24.1076 475.619 23.2487C477.531 22.3676 479.604 21.8928 481.708 21.8542H489.256C493.104 21.7799 496.907 22.6885 500.306 24.4942C503.46 26.2022 506.049 28.7914 507.757 31.9458C509.579 35.4117 510.491 39.2833 510.408 43.1978V55.4825C510.484 59.4591 509.558 63.391 507.715 66.9154C505.984 70.1507 503.366 72.8246 500.167 74.6226C496.77 76.4937 492.942 77.4407 489.064 77.369H481.613C479.191 77.3108 476.835 76.565 474.821 75.2187ZM487.329 64.5735C488.491 64.6089 489.646 64.3746 490.702 63.8888C491.759 63.4031 492.688 62.6791 493.418 61.7738C495.038 59.6818 495.86 57.082 495.739 54.4392V44.305C495.859 41.7885 495.052 39.3152 493.471 37.3536C492.746 36.4949 491.836 35.8113 490.809 35.3541C489.782 34.8969 488.665 34.678 487.542 34.7136H480.857C479.509 34.6799 478.17 34.9308 476.927 35.4499C475.683 35.969 474.563 36.7447 473.639 37.7262C471.618 39.9095 470.434 42.7377 470.297 45.7101V54.9821C470.677 57.6186 471.906 60.0591 473.799 61.9335C474.656 62.7834 475.673 63.4546 476.791 63.9078C477.91 64.361 479.107 64.5873 480.314 64.5735H487.329Z" fill="#131514"/>
<path d="M521.319 72.1951C519.377 70.5195 517.836 68.429 516.809 66.078C515.783 63.727 515.298 61.1754 515.39 58.6118H529.835C529.802 59.4926 529.963 60.3699 530.307 61.1814C530.651 61.9928 531.17 62.7184 531.826 63.3064C533.283 64.5341 535.149 65.1686 537.053 65.0841H546.761C551.076 65.0841 553.23 63.8954 553.223 61.5179V59.687C553.205 59.2969 553.099 58.9159 552.915 58.5716C552.731 58.2273 552.473 57.9283 552.159 57.6963C551.316 57.0359 550.313 56.6099 549.252 56.4615L530.602 53.2679C526.739 52.7846 523.111 51.1487 520.191 48.5734C518.991 47.5141 518.029 46.2118 517.37 44.7528C516.711 43.2937 516.37 41.7113 516.369 40.1104V36.5549C516.301 34.4224 516.785 32.3084 517.776 30.4187C518.766 28.529 520.229 26.9279 522.022 25.7713C525.79 23.1809 531.053 21.8893 537.809 21.8964H546.219C552.251 21.8964 557.119 23.4932 560.824 26.6867C562.641 28.2465 564.083 30.1949 565.045 32.3877C566.007 34.5805 566.463 36.9615 566.381 39.3546H551.924C551.956 38.6502 551.832 37.9475 551.561 37.2963C551.291 36.6451 550.881 36.0613 550.359 35.5862C549.203 34.6095 547.72 34.1073 546.208 34.181H538.011C533.338 34.181 531.006 35.2455 531.006 37.3746V39.0991C531.002 39.478 531.082 39.8533 531.24 40.1976C531.398 40.5419 531.631 40.8466 531.922 41.0898C532.681 41.7045 533.594 42.0985 534.562 42.2288L554.181 45.7843C557.864 46.3107 561.312 47.9017 564.102 50.3618C565.26 51.3386 566.197 52.5514 566.848 53.9191C567.5 55.2867 567.852 56.7777 567.882 58.2924V62.1673C567.939 64.3551 567.439 66.5216 566.43 68.4637C565.421 70.4057 563.935 72.0596 562.112 73.2703C558.258 76.0097 553.138 77.3758 546.751 77.3687H537.021C530.506 77.3687 525.272 75.6442 521.319 72.1951Z" fill="#131514"/>
</svg>
